<svg version="1.1" id="Livello_1" xmlns="http://www.w3.org/2000/svg" xmlns:xlink="http://www.w3.org/1999/xlink" x="0px" y="0px" width="579.8px" height="182px" viewBox="0 0 579.8 182">
  <path fill="#FFFFFF" d="M300,49.2h-19.8l0,37c0,10.8-4.6,19.5-15.4,19.5c-10.8,0-15.5-8.7-15.5-19.5V49.2h-19.7l0,36.9   c0,21.3,13.7,38.6,35.1,38.6c21.3,0,35.3-17.3,35.3-38.6L300,49.2z M497.7,26.7v96.2h-19.7V26.7H497.7z M512.2,30.2v-3.5h15.3   v3.5H522v15.2h-4.1V30.2H512.2z M535.5,26.8l4.4,12.9h0.1l4.1-12.9h5.8v18.7H546V32.2h-0.1l-4.6,13.2h-3.2l-4.6-13.1h-0.1v13.1   h-3.8V26.8H535.5z M221.8,51.5c0,8.2,0,22.4,0,22.4s-3.6-3.6-12.2-5.7c-17-4-25.7,11.6-25.7,14.8v39.8h-19.7V49.4h17.6l2.1,12.9   c0,0,0.1,0.7,0.7,0.7c0.8,0,0.8-0.2,1-0.7c0.4-0.9,11.1-17.7,28.1-13.8C216.4,49.1,218.6,49.9,221.8,51.5z M326.7,147v-26.4   c0,0,0,0,0,0l0-9.9c0,0,0-0.8,0.7-0.8c0.6,0,0.8,0.4,0.9,0.8c1.5,3.7,9.7,17.9,28,13.5c16.3-4.6,28.3-19.6,28.3-37.4   c0-21.5-17.4-38.9-38.9-38.9S307,65.2,307,86.7c0,0,0,53.2,0,60.3H326.7z M345.9,67c10.9,0,19.7,8.8,19.7,19.7   c0,10.9-8.8,19.7-19.7,19.7c-10.9,0-19.7-8.8-19.7-19.7C326.2,75.8,335,67,345.9,67z M450.3,122.9h19.8V86.7   c0-21.5-17.4-38.9-38.9-38.9c-21.5,0-38.9,17.4-38.9,38.9c0,17.8,12,32.8,28.3,37.4c18.3,4.4,26.5-9.7,28-13.5   c0.2-0.4,0.3-0.8,0.9-0.8c0.7,0,0.7,0.8,0.7,0.8 M450.9,86.7c0,10.9-8.8,19.7-19.7,19.7c-10.9,0-19.7-8.8-19.7-19.7   c0-10.9,8.8-19.7,19.7-19.7C442,67,450.9,75.8,450.9,86.7z M102.3,122.7H79.8V26.6h24.1c29.2,0,51.3,5.4,51.3,48   C155.2,116.9,131.8,122.7,102.3,122.7z M107.6,43.3h-7.9V106l8.2,0.2c16.7,0,27.5-1.5,27.5-31.6   C135.3,45.9,125.8,43.3,107.6,43.3z"/>
  </svg>